<svg id="Group_3936" data-name="Group 3936" xmlns="http://www.w3.org/2000/svg" xmlns:xlink="http://www.w3.org/1999/xlink" width="224.752" height="27.034" viewBox="0 0 224.752 27.034">
  <defs>
    <clipPath id="clip-path">
      <rect id="Rectangle_286" data-name="Rectangle 286" width="224.752" height="27.034" fill="none"/>
    </clipPath>
  </defs>
  <rect id="Rectangle_285" data-name="Rectangle 285" width="6.937" height="26.24" transform="translate(0 0.103)"/>
  <g id="Group_3937" data-name="Group 3937">
    <g id="Group_3936-2" data-name="Group 3936" clip-path="url(#clip-path)">
      <path id="Path_319" data-name="Path 319" d="M52.143,32.357V18.092c0-3.273-1.71-4.4-4.348-4.4a6.72,6.72,0,0,0-5.374,2.785V32.357h-6.2V8.761h6.2v3.078a10.805,10.805,0,0,1,8.256-3.664c5.179,0,7.67,2.931,7.67,7.524V32.357Z" transform="translate(-26.643 -6.014)"/>
      <path id="Path_320" data-name="Path 320" d="M217.777,8.175c7.035,0,11.822,5.276,11.822,13v1.368H212.062c.39,2.98,2.785,5.471,6.79,5.471a9.65,9.65,0,0,0,6.3-2.345l2.736,4.006c-2.394,2.2-6.058,3.273-9.722,3.273-7.182,0-12.6-4.836-12.6-12.409a12.009,12.009,0,0,1,12.213-12.36m-5.814,10.162h11.627a5.466,5.466,0,0,0-5.813-5.227,5.671,5.671,0,0,0-5.814,5.227" transform="translate(-151.221 -6.014)"/>
      <path id="Path_321" data-name="Path 321" d="M294.549,24.933a13.506,13.506,0,0,0,8.158,3.224c2.687,0,3.957-.928,3.957-2.394,0-1.661-2.052-2.247-4.739-2.785-4.055-.782-9.282-1.759-9.282-7.377,0-3.957,3.468-7.426,9.673-7.426a14.825,14.825,0,0,1,9.478,3.224l-2.443,4.25a9.954,9.954,0,0,0-6.986-2.736c-2.247,0-3.713.831-3.713,2.2,0,1.466,1.856,2,4.494,2.541,4.055.781,9.478,1.856,9.478,7.719,0,4.348-3.664,7.572-10.21,7.572a15.885,15.885,0,0,1-10.552-3.664Z" transform="translate(-214.705 -6.015)"/>
      <path id="Path_322" data-name="Path 322" d="M381.073,10.284V5.556h-3.467V0h-6.253V5.655h-2.579v4.629h2.579v10.2c0,4.2,2.345,6.448,6.693,6.448l2.21-5.553h-.5c-1.367,0-2.15-1.091-2.15-2.556V10.284Z" transform="translate(-271.285)"/>
      <path id="Path_323" data-name="Path 323" d="M128.474,23.413l-4.916-12.357h-6.776l8.371,20.727Z" transform="translate(-85.909 -8.133)"/>
      <path id="Path_324" data-name="Path 324" d="M154.839,34.506l9.212-23.33h6.693l-9.212,23.33Z" transform="translate(-113.906 -8.221)"/>
      <path id="Path_325" data-name="Path 325" d="M414.47,35.074l9.977-24.057h6.674l-9.977,24.057Z" transform="translate(-304.901 -8.104)" fill="#28de91"/>
      <path id="Path_326" data-name="Path 326" d="M522.882,11.054h9.467c7.587.006,12.71,5,12.7,11.973S539.918,35.107,532.33,35.1l-9.467-.008Zm9.333,22.232c6.689.006,10.983-4.247,10.988-10.261s-4.282-10.274-10.971-10.279l-7.5-.006-.017,20.54Z" transform="translate(-384.638 -8.132)"/>
      <path id="Path_327" data-name="Path 327" d="M632.178,34.384l-.014,17.9h-1.622l0-4.048a6.949,6.949,0,0,1-6.658,3.913c-4.493,0-7.362-2.539-7.359-7.472l.008-10.3h1.689l-.008,10.169c0,3.986,2.123,6.082,5.806,6.086,3.986,0,6.455-2.664,6.458-6.852l.008-9.392Z" transform="translate(-453.542 -25.285)"/>
      <path id="Path_328" data-name="Path 328" d="M710.752,22.583a8.548,8.548,0,0,1-8.723,8.945,7.881,7.881,0,0,1-7.226-4.3l0,4.42h-1.622l.02-25.331h1.689l-.009,11.452a7.894,7.894,0,0,1,7.165-4.149c4.966,0,8.713,3.656,8.709,8.96m-1.689,0c0-4.425-3.068-7.435-7.122-7.438s-7.1,3-7.1,7.426,3.034,7.435,7.089,7.438,7.13-3,7.134-7.426" transform="translate(-509.929 -4.649)"/>
      <path id="Path_329" data-name="Path 329" d="M777.934,40.6l-.009,11.447H776.3l0-3.406c-1.116,2.026-3.279,3.274-6.354,3.272-3.953,0-6.35-2.032-6.347-5.039,0-2.669,1.693-4.931,6.592-4.927l6.047,0V40.527c0-3.277-1.786-5.035-5.232-5.038a9.151,9.151,0,0,0-6.082,2.225l-.844-1.217A10.758,10.758,0,0,1,771.149,34c4.358,0,6.789,2.235,6.785,6.593m-1.694,5.979,0-3.311-6.013-.005c-3.649,0-4.934,1.516-4.935,3.543,0,2.3,1.788,3.717,4.9,3.72a6.044,6.044,0,0,0,6.05-3.947" transform="translate(-561.738 -25.014)"/>
      <path id="Path_330" data-name="Path 330" d="M827.809,17.249H829.5l-.014,17.9h-1.689Zm-.239-5a1.183,1.183,0,1,1,2.365,0,1.155,1.155,0,0,1-1.184,1.181,1.175,1.175,0,0,1-1.181-1.183" transform="translate(-607.182 -8.116)"/>
      <path id="Path_331" data-name="Path 331" d="M450.47,35.074l9.977-24.057h6.674l-9.977,24.057Z" transform="translate(-331.384 -8.104)" fill="#28de91"/>
    </g>
  </g>
</svg>
